<?xml version="1.0" encoding="UTF-8" standalone="no"?>
<svg
   width="479pt" height="232pt" viewBox="0 0 479 232"
   version="1.1"
   xmlns="http://www.w3.org/2000/svg"
   xmlns:svg="http://www.w3.org/2000/svg">
	<style type="text/css">
    path {
      fill:black; 
      fill-rule:nonzero;
      stroke:none; 
      stroke-width:2;
      stroke-linecap:butt; 
      stroke-linejoin:miter; 
      stroke-dasharray:none;
    }
    text {
      font-style:normal;
      font-weight:normal;
      font-size:32pt;
      line-height:125%;
      font-family: Free-Sans, Sans, sans-serif;
    }
  </style>
  <path d="m 153.4,55.9004 c 0,0 -1.2,2.0996 -1.2,2.0996 0,0 -48.4,0 -48.4,0 0,0 -0.6,-1.0498 -0.6,-1.0498 0,0 0.6,-1.0498 0.6,-1.0498 0,0 49.6,0 49.6,0 z" />
  <path d="m 178.2,98.9004 c 0,0 -1.2,2.0496 -1.2,2.0496 0,0 -24.8,-42.95 -24.8,-42.95 0,0 1.2,-2.0996 1.2,-2.0996 0,0 24.8,43 24.8,43 z" />
  <path d="m 211.95,98.9004 c 0,0 0,2.0496 0,2.0496 0,0 -34.95,0 -34.95,0 0,0 1.2,-2.0496 1.2,-2.0496 0,0 33.75,0 33.75,0 z" />
  <path d="m 252.6,141.85 c 0,0 -1.2,2.05 -1.2,2.05 0,0 -14.05,-24.3 -14.05,-24.3 0,0 1.8,-1.05 1.8,-1.05 0,0 13.45,23.3 13.45,23.3 z" />
  <path d="m 301.05,141.85 c 0,0 1.2,2.05 1.2,2.05 0,0 -50.85,0 -50.85,0 0,0 1.2,-2.05 1.2,-2.05 0,0 48.45,0 48.45,0 z" />
  <path d="m 325.25,99.9004 c 0,0 1.2,0 1.2,0 0,0 0.6,1.0496 0.6,1.0496 0,0 -24.8,42.95 -24.8,42.95 0,0 -1.2,-2.05 -1.2,-2.05 0,0 24.2,-41.9496 24.2,-41.9496 z" />
  <path d="m 301.05,57.9502 c 0,0 1.2,-2.0498 1.2,-2.0498 0,0 24.8,43 24.8,43 0,0 -0.6,1 -0.6,1 0,0 -1.2,0 -1.2,0 0,0 -24.2,-41.9502 -24.2,-41.9502 z" />
  <path d="m 252.6,57.9502 c 0,0 -1.2,-2.0498 -1.2,-2.0498 0,0 50.85,0 50.85,0 0,0 -1.2,2.0498 -1.2,2.0498 0,0 -48.45,0 -48.45,0 z" />
  <path d="m 238.1,83.0996 c 0,0 -1.8,-1 -1.8,-1 0,0 15.1,-26.1992 15.1,-26.1992 0,0 1.2,2.0498 1.2,2.0498 0,0 -14.5,25.1494 -14.5,25.1494 z" />
  <path d="m 360.8,98.9004 c 0,0 0,2.0496 0,2.0496 0,0 -33.75,0 -33.75,0 0,0 -0.6,-1.0496 -0.6,-1.0496 0,0 0.6,-1 0.6,-1 0,0 33.75,0 33.75,0 z" />
  <path d="m 401.45,141.85 c 0,0 -0.6,1 -0.6,1 0,0 -1.2,0 -1.2,0 0,0 -13.45,-23.3 -13.45,-23.3 0,0 1.8,-1 1.8,-1 0,0 13.45,23.3 13.45,23.3 z" />
  <path d="m 400.25,55.9004 c 0,0 1.2,2.0996 1.2,2.0996 0,0 -14.5,25.1504 -14.5,25.1504 0,0 -1.8,-1.0508 -1.8,-1.0508 0,0 15.1,-26.1992 15.1,-26.1992 z" />
  <path d="m 377.25,185.85 c 0,0 -2.4,0 -2.4,0 0,0 24.8,-43 24.8,-43 0,0 1.2,0 1.2,0 0,0 0.6,1.05 0.6,1.05 0,0 -24.2,41.95 -24.2,41.95 z" />
  <path d="m 387.25,186.35 c 0,0 -1.8,-1.05 -1.8,-1.05 0,0 19.65,-34 19.65,-34 0,0 1.8,1 1.8,1 0,0 -19.65,34.05 -19.65,34.05 z" />
  <path d="m 401.45,227.8 c 0,0 -1.2,2.05 -1.2,2.05 0,0 -25.4,-44 -25.4,-44 0,0 2.4,0 2.4,0 0,0 24.2,41.95 24.2,41.95 z" />
  <path d="m 449.9,227.8 c 0,0 1.15,2.05 1.15,2.05 0,0 -50.8,0 -50.8,0 0,0 1.2,-2.05 1.2,-2.05 0,0 48.45,0 48.45,0 z" />
  <path d="m 445.3,218.85 c 0,0 0,2.05 0,2.05 0,0 -39.3,0 -39.3,0 0,0 0,-2.05 0,-2.05 0,0 39.3,0 39.3,0 z" />
  <path d="m 474.1,185.85 c 0,0 2.4,0 2.4,0 0,0 -25.45,44 -25.45,44 0,0 -1.15,-2.05 -1.15,-2.05 0,0 24.2,-41.95 24.2,-41.95 z" />
  <path d="m 449.9,143.9 c 0,0 1.15,-2.05 1.15,-2.05 0,0 25.45,44 25.45,44 0,0 -2.4,0 -2.4,0 0,0 -24.2,-41.95 -24.2,-41.95 z" />
  <path d="m 444.4,152.3 c 0,0 1.8,-1 1.8,-1 0,0 19.65,34 19.65,34 0,0 -1.75,1.05 -1.75,1.05 0,0 -19.7,-34.05 -19.7,-34.05 z" />
  <path d="m 401.45,143.9 c 0,0 -0.6,-1.05 -0.6,-1.05 0,0 0.6,-1 0.6,-1 0,0 49.6,0 49.6,0 0,0 -1.15,2.05 -1.15,2.05 0,0 -48.45,0 -48.45,0 z" />
  <path d="m 449.85,55.9004 c 0,0 1.2,2.0996 1.2,2.0996 0,0 -49.6,0 -49.6,0 0,0 -1.2,-2.0996 -1.2,-2.0996 0,0 49.6,0 49.6,0 z" />
  <path d="m 380.95,33.4502 c 0,0 1.8,-1 1.8,-1 0,0 16.4,28.4502 16.4,28.4502 0,0 -1.75,1.0498 -1.75,1.0498 0,0 -16.45,-28.5 -16.45,-28.5 z" />
  <path d="m 388.65,29 c 0,0 1.8,-1.0498 1.8,-1.0498 0,0 16.45,28.5 16.45,28.5 0,0 -1.8,1 -1.8,1 0,0 -16.45,-28.4502 -16.45,-28.4502 z" />
  <path d="m 474.35,13.5 c 0,0 1.8,1 1.8,1 0,0 -25.1,43.5 -25.1,43.5 0,0 -1.2,-2.0996 -1.2,-2.0996 0,0 24.5,-42.4004 24.5,-42.4004 z" />
  <path d="m 77.7998,15 c 0,0 1.2002,-2.0498 1.2002,-2.0498 0,0 24.8,42.9502 24.8,42.9502 0,0 -0.6,1.0498 -0.6,1.0498 0,0 -1.2,0 -1.2,0 0,0 -24.2002,-41.9502 -24.2002,-41.9502 z" />
  <path d="m 72.3496,23.4502 c 0,0 1.8008,-1.0498 1.8008,-1.0498 0,0 19.6494,34.0498 19.6494,34.0498 0,0 -1.7998,1 -1.7998,1 0,0 -19.6504,-34 -19.6504,-34 z" />
  <path d="m 29.3496,15 c 0,0 -1.1494,-2.0498 -1.1494,-2.0498 0,0 50.7998,0 50.7998,0 0,0 -1.2002,2.0498 -1.2002,2.0498 0,0 -48.4502,0 -48.4502,0 z" />
  <path d="m 5.15039,56.9502 c 0,0 -2.40039,0 -2.40039,0 0,0 25.4502,-44 25.4502,-44 0,0 1.1494,2.0498 1.1494,2.0498 0,0 -24.19921,41.9502 -24.19921,41.9502 z" />
  <path d="m 15.1504,57.4502 c 0,0 -1.75,-1 -1.75,-1 0,0 19.6494,-34.0498 19.6494,-34.0498 0,0 1.7998,1.0498 1.7998,1.0498 0,0 -19.6992,34 -19.6992,34 z" />
  <path d="m 29.3496,98.9004 c 0,0 -1.1494,2.0496 -1.1494,2.0496 0,0 -25.4502,-43.9998 -25.4502,-43.9998 0,0 2.40039,0 2.40039,0 0,0 24.19921,41.9502 24.19921,41.9502 z" />
  <path d="m 77.7998,98.9004 c 0,0 1.2002,2.0496 1.2002,2.0496 0,0 -50.7998,0 -50.7998,0 0,0 1.1494,-2.0496 1.1494,-2.0496 0,0 48.4502,0 48.4502,0 z" />
  <path d="m 73.25,89.9502 c 0,0 0,2.0996 0,2.0996 0,0 -39.2998,0 -39.2998,0 0,0 0,-2.0996 0,-2.0996 0,0 39.2998,0 39.2998,0 z" />
  <path d="m 102,56.9502 c 0,0 1.2,0 1.2,0 0,0 0.6,1.0498 0.6,1.0498 0,0 -24.8,42.95 -24.8,42.95 0,0 -1.2002,-2.0496 -1.2002,-2.0496 0,0 24.2002,-41.9502 24.2002,-41.9502 z" />
  <text xml:space="preserve" transform="matrix(0.75,0,0,0.75,45,-48)"><tspan x="225.20703" y="213.56103">N</tspan></text>
  <text xml:space="preserve" transform="matrix(0.75,0,0,0.75,195.92481,-48.041757)"><tspan x="225.20703" y="213.56103">N</tspan></text>
  <text xml:space="preserve" transform="matrix(0.75,0,0,0.75,198.10052,-132.89502)"><tspan x="225.20703" y="213.56103">O</tspan></text>
</svg>
