<?xml version="1.0" encoding="UTF-8"?>
<!DOCTYPE svg PUBLIC "-//W3C//DTD SVG 1.1//EN" "http://www.w3.org/Graphics/SVG/1.1/DTD/svg11.dtd">
<svg version="1.2" width="167.15mm" height="79.7mm" viewBox="2379 6549 16715 7970" preserveAspectRatio="xMidYMid" fill-rule="evenodd" stroke-width="28.222" stroke-linejoin="round" xmlns="http://www.w3.org/2000/svg" xmlns:ooo="http://xml.openoffice.org/svg/export" xmlns:xlink="http://www.w3.org/1999/xlink" xmlns:presentation="http://sun.com/xmlns/staroffice/presentation" xmlns:smil="http://www.w3.org/2001/SMIL20/" xmlns:anim="urn:oasis:names:tc:opendocument:xmlns:animation:1.0" xmlns:svg="urn:oasis:names:tc:opendocument:xmlns:svg-compatible:1.0" xml:space="preserve">
 <defs class="EmbeddedBulletChars">
  <g id="bullet-char-template-57356" transform="scale(0.00048828125,-0.00048828125)">
   <path d="M 580,1141 L 1163,571 580,0 -4,571 580,1141 Z"/>
  </g>
  <g id="bullet-char-template-57354" transform="scale(0.00048828125,-0.00048828125)">
   <path d="M 8,1128 L 1137,1128 1137,0 8,0 8,1128 Z"/>
  </g>
  <g id="bullet-char-template-10146" transform="scale(0.00048828125,-0.00048828125)">
   <path d="M 174,0 L 602,739 174,1481 1456,739 174,0 Z M 1358,739 L 309,1346 659,739 1358,739 Z"/>
  </g>
  <g id="bullet-char-template-10132" transform="scale(0.00048828125,-0.00048828125)">
   <path d="M 2015,739 L 1276,0 717,0 1260,543 174,543 174,936 1260,936 717,1481 1274,1481 2015,739 Z"/>
  </g>
  <g id="bullet-char-template-10007" transform="scale(0.00048828125,-0.00048828125)">
   <path d="M 0,-2 C -7,14 -16,27 -25,37 L 356,567 C 262,823 215,952 215,954 215,979 228,992 255,992 264,992 276,990 289,987 310,991 331,999 354,1012 L 381,999 492,748 772,1049 836,1024 860,1049 C 881,1039 901,1025 922,1006 886,937 835,863 770,784 769,783 710,716 594,584 L 774,223 C 774,196 753,168 711,139 L 727,119 C 717,90 699,76 672,76 641,76 570,178 457,381 L 164,-76 C 142,-110 111,-127 72,-127 30,-127 9,-110 8,-76 1,-67 -2,-52 -2,-32 -2,-23 -1,-13 0,-2 Z"/>
  </g>
  <g id="bullet-char-template-10004" transform="scale(0.00048828125,-0.00048828125)">
   <path d="M 285,-33 C 182,-33 111,30 74,156 52,228 41,333 41,471 41,549 55,616 82,672 116,743 169,778 240,778 293,778 328,747 346,684 L 369,508 C 377,444 397,411 428,410 L 1163,1116 C 1174,1127 1196,1133 1229,1133 1271,1133 1292,1118 1292,1087 L 1292,965 C 1292,929 1282,901 1262,881 L 442,47 C 390,-6 338,-33 285,-33 Z"/>
  </g>
  <g id="bullet-char-template-9679" transform="scale(0.00048828125,-0.00048828125)">
   <path d="M 813,0 C 632,0 489,54 383,161 276,268 223,411 223,592 223,773 276,916 383,1023 489,1130 632,1184 813,1184 992,1184 1136,1130 1245,1023 1353,916 1407,772 1407,592 1407,412 1353,268 1245,161 1136,54 992,0 813,0 Z"/>
  </g>
  <g id="bullet-char-template-8226" transform="scale(0.00048828125,-0.00048828125)">
   <path d="M 346,457 C 273,457 209,483 155,535 101,586 74,649 74,723 74,796 101,859 155,911 209,963 273,989 346,989 419,989 480,963 531,910 582,859 608,796 608,723 608,648 583,586 532,535 482,483 420,457 346,457 Z"/>
  </g>
  <g id="bullet-char-template-8211" transform="scale(0.00048828125,-0.00048828125)">
   <path d="M -4,459 L 1135,459 1135,606 -4,606 -4,459 Z"/>
  </g>
  <g id="bullet-char-template-61548" transform="scale(0.00048828125,-0.00048828125)">
   <path d="M 173,740 C 173,903 231,1043 346,1159 462,1274 601,1332 765,1332 928,1332 1067,1274 1183,1159 1299,1043 1357,903 1357,740 1357,577 1299,437 1183,322 1067,206 928,148 765,148 601,148 462,206 346,322 231,437 173,577 173,740 Z"/>
  </g>
 </defs>
 <g class="Page">
  <g class="Group">
   <g class="com.sun.star.drawing.ClosedBezierShape">
    <g id="id3">
     <rect class="BoundingBox" stroke="none" fill="none" x="5923" y="8381" width="1773" height="76"/>
     <path fill="rgb(0,0,0)" stroke="none" d="M 7695,8382 C 7680,8406 7666,8431 7652,8456 7083,8456 6514,8456 5945,8456 5938,8443 5931,8431 5924,8419 5931,8406 5938,8394 5945,8382 6528,8382 7111,8382 7695,8382 Z "/>
    </g>
   </g>
   <g class="com.sun.star.drawing.ClosedBezierShape">
    <g id="id4">
     <rect class="BoundingBox" stroke="none" fill="none" x="7651" y="8381" width="920" height="1591"/>
     <path fill="rgb(0,0,0)" stroke="none" d="M 8570,9899 C 8555,9923 8541,9947 8527,9971 8235,9466 7943,8961 7652,8456 7666,8431 7680,8406 7695,8382 7986,8887 8278,9393 8570,9899 Z "/>
    </g>
   </g>
   <g class="com.sun.star.drawing.ClosedBezierShape">
    <g id="id5">
     <rect class="BoundingBox" stroke="none" fill="none" x="8526" y="9898" width="1235" height="74"/>
     <path fill="rgb(0,0,0)" stroke="none" d="M 9760,9899 C 9760,9923 9760,9947 9760,9971 9349,9971 8938,9971 8527,9971 8541,9947 8555,9923 8570,9899 8966,9899 9363,9899 9760,9899 Z "/>
    </g>
   </g>
   <g class="com.sun.star.drawing.ClosedBezierShape">
    <g id="id6">
     <rect class="BoundingBox" stroke="none" fill="none" x="10655" y="10591" width="540" height="896"/>
     <path fill="rgb(0,0,0)" stroke="none" d="M 11193,11413 C 11179,11437 11165,11461 11151,11485 10986,11200 10821,10914 10656,10628 10677,10616 10698,10604 10720,10591 10877,10865 11035,11139 11193,11413 Z "/>
    </g>
   </g>
   <g class="com.sun.star.drawing.ClosedBezierShape">
    <g id="id7">
     <rect class="BoundingBox" stroke="none" fill="none" x="11151" y="11413" width="1796" height="74"/>
     <path fill="rgb(0,0,0)" stroke="none" d="M 12902,11413 C 12917,11437 12931,11461 12945,11485 12347,11485 11749,11485 11151,11485 11165,11461 11179,11437 11193,11413 11763,11413 12333,11413 12902,11413 Z "/>
    </g>
   </g>
   <g class="com.sun.star.drawing.ClosedBezierShape">
    <g id="id8">
     <rect class="BoundingBox" stroke="none" fill="none" x="12902" y="9933" width="919" height="1554"/>
     <path fill="rgb(0,0,0)" stroke="none" d="M 13756,9934 C 13770,9934 13784,9934 13798,9934 13805,9946 13812,9958 13819,9971 13528,10476 13237,10980 12945,11485 12931,11461 12917,11437 12902,11413 13187,10920 13472,10427 13756,9934 Z "/>
    </g>
   </g>
   <g class="com.sun.star.drawing.ClosedBezierShape">
    <g id="id9">
     <rect class="BoundingBox" stroke="none" fill="none" x="12902" y="8381" width="919" height="1554"/>
     <path fill="rgb(0,0,0)" stroke="none" d="M 12902,8454 C 12917,8430 12931,8406 12945,8382 13237,8887 13528,9393 13819,9899 13812,9910 13805,9922 13798,9934 13784,9934 13770,9934 13756,9934 13472,9440 13187,8947 12902,8454 Z "/>
    </g>
   </g>
   <g class="com.sun.star.drawing.ClosedBezierShape">
    <g id="id10">
     <rect class="BoundingBox" stroke="none" fill="none" x="11151" y="8381" width="1796" height="74"/>
     <path fill="rgb(0,0,0)" stroke="none" d="M 11193,8454 C 11179,8430 11165,8406 11151,8382 11749,8382 12347,8382 12945,8382 12931,8406 12917,8430 12902,8454 12333,8454 11763,8454 11193,8454 Z "/>
    </g>
   </g>
   <g class="com.sun.star.drawing.ClosedBezierShape">
    <g id="id11">
     <rect class="BoundingBox" stroke="none" fill="none" x="10618" y="8381" width="577" height="961"/>
     <path fill="rgb(0,0,0)" stroke="none" d="M 10683,9341 C 10661,9329 10640,9317 10619,9306 10796,8998 10974,8690 11151,8382 11165,8406 11179,8430 11193,8454 11023,8749 10853,9045 10683,9341 Z "/>
    </g>
   </g>
   <g class="com.sun.star.drawing.ClosedBezierShape">
    <g id="id12">
     <rect class="BoundingBox" stroke="none" fill="none" x="13798" y="9898" width="1214" height="74"/>
     <path fill="rgb(0,0,0)" stroke="none" d="M 15010,9899 C 15010,9923 15010,9947 15010,9971 14613,9971 14216,9971 13819,9971 13812,9958 13805,9946 13798,9934 13805,9922 13812,9910 13819,9899 14216,9899 14613,9899 15010,9899 Z "/>
    </g>
   </g>
   <g class="com.sun.star.drawing.ClosedBezierShape">
    <g id="id13">
     <rect class="BoundingBox" stroke="none" fill="none" x="15906" y="10591" width="540" height="859"/>
     <path fill="rgb(0,0,0)" stroke="none" d="M 16444,11413 C 16437,11425 16430,11437 16423,11448 16409,11448 16395,11448 16381,11448 16223,11174 16065,10900 15906,10626 15928,10615 15949,10603 15970,10591 16128,10865 16286,11139 16444,11413 Z "/>
    </g>
   </g>
   <g class="com.sun.star.drawing.ClosedBezierShape">
    <g id="id14">
     <rect class="BoundingBox" stroke="none" fill="none" x="15869" y="8381" width="577" height="963"/>
     <path fill="rgb(0,0,0)" stroke="none" d="M 16402,8382 C 16416,8406 16430,8431 16444,8456 16274,8751 16104,9047 15933,9343 15912,9330 15891,9318 15869,9306 16047,8998 16225,8690 16402,8382 Z "/>
    </g>
   </g>
   <g class="com.sun.star.drawing.ClosedBezierShape">
    <g id="id15">
     <rect class="BoundingBox" stroke="none" fill="none" x="15506" y="11448" width="940" height="1519"/>
     <path fill="rgb(0,0,0)" stroke="none" d="M 15590,12965 C 15562,12965 15534,12965 15506,12965 15798,12460 16090,11954 16381,11448 16395,11448 16409,11448 16423,11448 16430,11461 16437,11473 16444,11485 16160,11979 15875,12472 15590,12965 Z "/>
    </g>
   </g>
   <g class="com.sun.star.drawing.ClosedBezierShape">
    <g id="id16">
     <rect class="BoundingBox" stroke="none" fill="none" x="15880" y="11746" width="758" height="1239"/>
     <path fill="rgb(0,0,0)" stroke="none" d="M 15943,12983 C 15922,12971 15901,12958 15880,12945 16111,12546 16342,12146 16573,11746 16594,11758 16615,11770 16636,11781 16405,12182 16174,12583 15943,12983 Z "/>
    </g>
   </g>
   <g class="com.sun.star.drawing.ClosedBezierShape">
    <g id="id17">
     <rect class="BoundingBox" stroke="none" fill="none" x="15506" y="12965" width="940" height="1554"/>
     <path fill="rgb(0,0,0)" stroke="none" d="M 16444,14445 C 16430,14469 16416,14493 16402,14517 16104,14000 15805,13482 15506,12965 15534,12965 15562,12965 15590,12965 15875,13458 16160,13952 16444,14445 Z "/>
    </g>
   </g>
   <g class="com.sun.star.drawing.ClosedBezierShape">
    <g id="id18">
     <rect class="BoundingBox" stroke="none" fill="none" x="16402" y="14445" width="1794" height="74"/>
     <path fill="rgb(0,0,0)" stroke="none" d="M 18153,14445 C 18167,14469 18180,14493 18194,14517 17597,14517 16999,14517 16402,14517 16416,14493 16430,14469 16444,14445 17014,14445 17583,14445 18153,14445 Z "/>
    </g>
   </g>
   <g class="com.sun.star.drawing.ClosedBezierShape">
    <g id="id19">
     <rect class="BoundingBox" stroke="none" fill="none" x="16605" y="14129" width="1388" height="74"/>
     <path fill="rgb(0,0,0)" stroke="none" d="M 17991,14129 C 17991,14153 17991,14177 17991,14201 17529,14201 17067,14201 16605,14201 16605,14177 16605,14153 16605,14129 17067,14129 17529,14129 17991,14129 Z "/>
    </g>
   </g>
   <g class="com.sun.star.drawing.ClosedBezierShape">
    <g id="id20">
     <rect class="BoundingBox" stroke="none" fill="none" x="18153" y="12965" width="941" height="1554"/>
     <path fill="rgb(0,0,0)" stroke="none" d="M 19007,12965 C 19035,12965 19064,12965 19092,12965 18793,13482 18493,14000 18194,14517 18180,14493 18167,14469 18153,14445 18438,13952 18722,13458 19007,12965 Z "/>
    </g>
   </g>
   <g class="com.sun.star.drawing.ClosedBezierShape">
    <g id="id21">
     <rect class="BoundingBox" stroke="none" fill="none" x="18153" y="11413" width="941" height="1554"/>
     <path fill="rgb(0,0,0)" stroke="none" d="M 18153,11485 C 18167,11461 18180,11437 18194,11413 18493,11931 18793,12448 19092,12965 19064,12965 19035,12965 19007,12965 18722,12472 18438,11979 18153,11485 Z "/>
    </g>
   </g>
   <g class="com.sun.star.drawing.ClosedBezierShape">
    <g id="id22">
     <rect class="BoundingBox" stroke="none" fill="none" x="17959" y="11746" width="759" height="1239"/>
     <path fill="rgb(0,0,0)" stroke="none" d="M 17959,11781 C 17980,11770 18002,11758 18023,11746 18254,12146 18485,12546 18716,12945 18695,12958 18675,12971 18654,12983 18422,12583 18191,12182 17959,11781 Z "/>
    </g>
   </g>
   <g class="com.sun.star.drawing.ClosedBezierShape">
    <g id="id23">
     <rect class="BoundingBox" stroke="none" fill="none" x="16423" y="11413" width="1773" height="74"/>
     <path fill="rgb(0,0,0)" stroke="none" d="M 16444,11485 C 16437,11473 16430,11461 16423,11448 16430,11437 16437,11425 16444,11413 17027,11413 17611,11413 18194,11413 18180,11437 18167,11461 18153,11485 17583,11485 17014,11485 16444,11485 Z "/>
    </g>
   </g>
   <g class="com.sun.star.drawing.ClosedBezierShape">
    <g id="id24">
     <rect class="BoundingBox" stroke="none" fill="none" x="16402" y="8381" width="1794" height="76"/>
     <path fill="rgb(0,0,0)" stroke="none" d="M 18151,8382 C 18165,8406 18180,8431 18194,8456 17611,8456 17027,8456 16444,8456 16430,8431 16416,8406 16402,8382 16985,8382 17568,8382 18151,8382 Z "/>
    </g>
   </g>
   <g class="com.sun.star.drawing.ClosedBezierShape">
    <g id="id25">
     <rect class="BoundingBox" stroke="none" fill="none" x="15721" y="7554" width="644" height="1042"/>
     <path fill="rgb(0,0,0)" stroke="none" d="M 15721,7590 C 15742,7578 15763,7567 15784,7555 15977,7889 16170,8223 16363,8558 16343,8570 16322,8582 16301,8595 16108,8260 15915,7925 15721,7590 Z "/>
    </g>
   </g>
   <g class="com.sun.star.drawing.ClosedBezierShape">
    <g id="id26">
     <rect class="BoundingBox" stroke="none" fill="none" x="15993" y="7395" width="645" height="1043"/>
     <path fill="rgb(0,0,0)" stroke="none" d="M 15993,7433 C 16014,7421 16035,7408 16056,7396 16250,7731 16443,8066 16636,8401 16615,8413 16594,8425 16573,8437 16380,8102 16187,7767 15993,7433 Z "/>
    </g>
   </g>
   <g class="com.sun.star.drawing.ClosedBezierShape">
    <g id="id27">
     <rect class="BoundingBox" stroke="none" fill="none" x="18151" y="6885" width="930" height="1572"/>
     <path fill="rgb(0,0,0)" stroke="none" d="M 19016,6886 C 19037,6898 19058,6910 19079,6922 18784,7433 18489,7944 18194,8456 18180,8431 18165,8406 18151,8382 18439,7883 18728,7385 19016,6886 Z "/>
    </g>
   </g>
   <g class="com.sun.star.drawing.ClosedBezierShape">
    <g id="id28">
     <rect class="BoundingBox" stroke="none" fill="none" x="5027" y="6866" width="919" height="1554"/>
     <path fill="rgb(0,0,0)" stroke="none" d="M 5028,6939 C 5042,6915 5056,6891 5070,6867 5361,7372 5653,7877 5945,8382 5938,8394 5931,8406 5924,8419 5909,8419 5895,8419 5881,8419 5596,7925 5312,7432 5028,6939 Z "/>
    </g>
   </g>
   <g class="com.sun.star.drawing.ClosedBezierShape">
    <g id="id29">
     <rect class="BoundingBox" stroke="none" fill="none" x="4834" y="7199" width="759" height="1239"/>
     <path fill="rgb(0,0,0)" stroke="none" d="M 4835,7237 C 4856,7225 4878,7212 4899,7200 5130,7600 5361,8000 5592,8401 5571,8413 5550,8425 5529,8437 5297,8037 5066,7637 4835,7237 Z "/>
    </g>
   </g>
   <g class="com.sun.star.drawing.ClosedBezierShape">
    <g id="id30">
     <rect class="BoundingBox" stroke="none" fill="none" x="3277" y="6866" width="1794" height="74"/>
     <path fill="rgb(0,0,0)" stroke="none" d="M 3319,6939 C 3305,6915 3292,6891 3278,6867 3875,6867 4473,6867 5070,6867 5056,6891 5042,6915 5028,6939 4458,6939 3889,6939 3319,6939 Z "/>
    </g>
   </g>
   <g class="com.sun.star.drawing.ClosedBezierShape">
    <g id="id31">
     <rect class="BoundingBox" stroke="none" fill="none" x="2379" y="6866" width="941" height="1554"/>
     <path fill="rgb(0,0,0)" stroke="none" d="M 2465,8419 C 2437,8419 2408,8419 2380,8419 2679,7901 2979,7384 3278,6867 3292,6891 3305,6915 3319,6939 3034,7432 2750,7925 2465,8419 Z "/>
    </g>
   </g>
   <g class="com.sun.star.drawing.ClosedBezierShape">
    <g id="id32">
     <rect class="BoundingBox" stroke="none" fill="none" x="2755" y="7199" width="759" height="1239"/>
     <path fill="rgb(0,0,0)" stroke="none" d="M 2818,8437 C 2797,8425 2777,8413 2756,8401 2987,8000 3218,7600 3449,7200 3470,7212 3492,7225 3513,7237 3281,7637 3050,8037 2818,8437 Z "/>
    </g>
   </g>
   <g class="com.sun.star.drawing.ClosedBezierShape">
    <g id="id33">
     <rect class="BoundingBox" stroke="none" fill="none" x="2379" y="8418" width="941" height="1554"/>
     <path fill="rgb(0,0,0)" stroke="none" d="M 3319,9899 C 3305,9923 3292,9947 3278,9971 2979,9453 2679,8936 2380,8419 2408,8419 2437,8419 2465,8419 2750,8912 3034,9405 3319,9899 Z "/>
    </g>
   </g>
   <g class="com.sun.star.drawing.ClosedBezierShape">
    <g id="id34">
     <rect class="BoundingBox" stroke="none" fill="none" x="3277" y="9898" width="1794" height="74"/>
     <path fill="rgb(0,0,0)" stroke="none" d="M 5028,9899 C 5042,9923 5056,9947 5070,9971 4473,9971 3875,9971 3278,9971 3292,9947 3305,9923 3319,9899 3889,9899 4458,9899 5028,9899 Z "/>
    </g>
   </g>
   <g class="com.sun.star.drawing.ClosedBezierShape">
    <g id="id35">
     <rect class="BoundingBox" stroke="none" fill="none" x="3480" y="9582" width="1388" height="76"/>
     <path fill="rgb(0,0,0)" stroke="none" d="M 4867,9583 C 4867,9607 4867,9632 4867,9657 4405,9657 3943,9657 3481,9657 3481,9632 3481,9607 3481,9583 3943,9583 4405,9583 4867,9583 Z "/>
    </g>
   </g>
   <g class="com.sun.star.drawing.ClosedBezierShape">
    <g id="id36">
     <rect class="BoundingBox" stroke="none" fill="none" x="5027" y="8418" width="919" height="1554"/>
     <path fill="rgb(0,0,0)" stroke="none" d="M 5881,8419 C 5895,8419 5909,8419 5924,8419 5931,8431 5938,8443 5945,8456 5653,8961 5361,9466 5070,9971 5056,9947 5042,9923 5028,9899 5312,9405 5596,8912 5881,8419 Z "/>
    </g>
   </g>
   <g class="com.sun.star.drawing.ClosedBezierShape">
    <g id="id37">
     <rect class="BoundingBox" stroke="none" fill="none" x="9922" y="9554" width="619" height="805"/>
     <path fill="rgb(0,0,0)" stroke="none" d="M 10540,9555 C 10540,9822 10540,10090 10540,10358 10504,10358 10468,10358 10433,10358 10298,10151 10163,9945 10029,9738 10029,9945 10029,10151 10029,10358 9993,10358 9958,10358 9922,10358 9922,10090 9922,9822 9922,9555 9958,9555 9993,9555 10029,9555 10164,9762 10299,9969 10434,10176 10434,9969 10434,9762 10434,9555 10469,9555 10504,9555 10540,9555 Z "/>
    </g>
   </g>
   <g class="com.sun.star.drawing.ClosedBezierShape">
    <g id="id38">
     <rect class="BoundingBox" stroke="none" fill="none" x="15245" y="9553" width="619" height="805"/>
     <path fill="rgb(0,0,0)" stroke="none" d="M 15863,9554 C 15863,9821 15863,10089 15863,10357 15827,10357 15791,10357 15756,10357 15621,10150 15486,9944 15352,9737 15352,9944 15352,10150 15352,10357 15316,10357 15281,10357 15245,10357 15245,10089 15245,9821 15245,9554 15281,9554 15316,9554 15352,9554 15487,9761 15622,9968 15757,10175 15757,9968 15757,9761 15757,9554 15792,9554 15827,9554 15863,9554 Z "/>
    </g>
   </g>
   <g class="com.sun.star.drawing.ClosedBezierShape">
    <g id="id39">
     <rect class="BoundingBox" stroke="none" fill="none" x="15294" y="6549" width="648" height="827"/>
     <path fill="rgb(0,0,0)" stroke="none" d="M 15940,6988 C 15940,7108 15911,7203 15852,7272 15794,7341 15716,7375 15618,7375 15523,7375 15445,7341 15385,7272 15325,7203 15295,7108 15295,6988 L 15295,6937 C 15295,6817 15325,6722 15384,6653 15444,6584 15522,6550 15617,6550 15714,6550 15792,6583 15851,6651 15909,6719 15939,6812 15940,6930 L 15940,6988 Z M 15835,6936 C 15835,6840 15816,6767 15778,6716 15739,6665 15686,6640 15617,6640 15551,6640 15499,6665 15459,6716 15420,6767 15400,6840 15400,6936 L 15400,6988 C 15400,7084 15420,7158 15460,7209 15500,7260 15552,7285 15618,7285 15687,7285 15741,7260 15778,7209 15816,7158 15835,7084 15835,6988 L 15835,6936 Z "/>
    </g>
   </g>
   <g class="com.sun.star.drawing.ClosedBezierShape">
    <g id="id40">
     <rect class="BoundingBox" stroke="none" fill="none" x="9922" y="9579" width="619" height="789"/>
     <path fill="rgb(0,0,0)" stroke="none" d="M 10540,9579 C 10540,9842 10540,10104 10540,10367 10504,10367 10468,10367 10432,10367 10298,10164 10163,9962 10028,9759 10028,9962 10028,10164 10028,10367 9993,10367 9958,10367 9922,10367 9922,10104 9922,9842 9922,9579 9958,9579 9993,9579 10028,9579 10164,9782 10299,9985 10434,10189 10434,9985 10434,9782 10434,9579 10469,9579 10504,9579 10540,9579 Z "/>
    </g>
   </g>
   <g class="com.sun.star.drawing.ClosedBezierShape">
    <g id="id41">
     <rect class="BoundingBox" stroke="none" fill="none" x="15246" y="9577" width="619" height="790"/>
     <path fill="rgb(0,0,0)" stroke="none" d="M 15864,9578 C 15864,9840 15864,10103 15864,10365 15828,10365 15792,10365 15757,10365 15622,10163 15487,9960 15353,9758 15353,9960 15353,10163 15353,10365 15317,10365 15282,10365 15246,10365 15246,10103 15246,9840 15246,9578 15282,9578 15317,9578 15353,9578 15488,9781 15623,9984 15758,10187 15758,9984 15758,9781 15758,9578 15793,9578 15829,9578 15864,9578 Z "/>
    </g>
   </g>
   <g class="com.sun.star.drawing.ClosedBezierShape">
    <g id="id42">
     <rect class="BoundingBox" stroke="none" fill="none" x="15295" y="6584" width="647" height="790"/>
     <path fill="rgb(0,0,0)" stroke="none" d="M 15941,7003 C 15941,7118 15912,7208 15853,7274 15795,7340 15717,7372 15619,7372 15524,7372 15446,7340 15386,7274 15326,7208 15296,7118 15296,7003 15296,6987 15296,6970 15296,6954 15296,6840 15326,6749 15385,6684 15445,6618 15523,6585 15618,6585 15715,6585 15793,6617 15851,6682 15910,6747 15940,6835 15941,6948 15941,6966 15941,6984 15941,7003 Z M 15836,6954 C 15836,6863 15817,6794 15778,6746 15740,6698 15687,6675 15618,6675 15552,6675 15499,6698 15460,6746 15421,6794 15401,6863 15401,6954 15401,6970 15401,6986 15401,7002 15401,7093 15421,7163 15461,7211 15500,7259 15553,7283 15619,7283 15688,7283 15741,7259 15779,7211 15817,7163 15836,7093 15836,7002 15836,6986 15836,6970 15836,6954 Z "/>
    </g>
   </g>
  </g>
 </g>
</svg>