<?xml version="1.0" encoding="UTF-8" standalone="no"?>
<svg
 xmlns="http://www.w3.org/2000/svg"
 xmlns:xlink="http://www.w3.org/1999/xlink"
 width="460"
 height="420">
<path
 d="m 65.65299,383.65784 c 0,-5.34665 1.43553,-9.53244 4.30664,-12.55736 2.87109,-3.02488 6.57714,-4.53733 11.11817,-4.53735 2.97361,2e-5 5.65427,0.71048 8.04199,2.13134 2.38767,1.42093 4.20773,3.40213 5.4602,5.94361 1.25241,2.54151 1.87862,5.4236 1.87867,8.64623 -5e-5,3.26661 -0.65923,6.18897 -1.97754,8.76709 -1.31839,2.57813 -3.18607,4.53003 -5.60303,5.85571 -2.41702,1.32568 -5.02444,1.98853 -7.82227,1.98853 -3.03224,0 -5.7422,-0.73243 -8.12988,-2.19727 -2.3877,-1.46483 -4.19678,-3.46435 -5.42725,-5.99853 -1.23047,-2.53417 -1.8457,-5.21483 -1.8457,-8.042 z m 4.39452,0.0659 c 0,3.88185 1.04371,6.93971 3.13111,9.17359 2.0874,2.23389 4.70579,3.35083 7.85522,3.35083 3.20799,0 5.84837,-1.12793 7.92114,-3.38379 2.07273,-2.25585 3.10911,-5.45653 3.10913,-9.60205 -2e-5,-2.62205 -0.44314,-4.91087 -1.32934,-6.86646 -0.88626,-1.95554 -2.18264,-3.47165 -3.88916,-4.54834 -1.70657,-1.07663 -3.62185,-1.61496 -5.74585,-1.61499 -3.01759,3e-5 -5.61403,1.03641 -7.78931,3.10913 -2.1753,2.07278 -3.26294,5.53347 -3.26294,10.38208 z"
 id="O"
 fill="#000" />
<path
 d="m 280.92214,226.28633 0,-32.21191 4.2627,0 0,13.22753 16.74316,0 0,-13.22753 4.2627,0 0,32.21191 -4.2627,0 0,-15.18311 -16.74316,0 0,15.18311 z"
 id="H"
 fill="#000" />
<use
 transform="translate(-0.13083253,-346.45877)"
 xlink:href="#O" />
<use
 transform="translate(13.369167,-173.04901)"
 xlink:href="#O" />
<path
 d="m 357.01966,304.90364 0,-32.21191 4.37256,0 16.91894,25.29053 0,-25.29053 4.08692,0 0,32.21191 -4.37256,0 -16.91895,-25.3125 0,25.3125 z"
 id="N"
 fill="#000" />
<path
 d="m 94.027524,284.72879 47.062506,-5.09375 0,-3 -47.062506,-5.4375 0,13.53125 z m 160.282936,-54.03258 5.09375,47.0625 3,0 5.4375,-47.0625 -13.53125,0 z m 67.53125,11.21875 -2.125,2.125 27.125,34.3125 9.3125,-9.3125 -34.3125,-27.125 z m -119.6875,0.34375 -2.59375,1.46875 30.875,65.40625 80.4375,25 43.71875,-24.90625 -6.625,-11.59375 -38.65625,21.84375 -69.9375,-21.5625 -37.21875,-55.65625 z"
 fill="#000" />
<use
 transform="translate(-218.9171,67.78279)"
 xlink:href="#H" />
<use
 transform="translate(180.02026,-173.07537)"
 xlink:href="#O" />
<path
 d="M 140.98812,341.5574 95.899048,367.59476 M 145.48812,349.3574 100.4,375.39476 M 140.9,277.59678 l 60,-34.5 m 51.6,-167.25 -53.4,-30.9 m 53.4,88.5 -53.4,30.6 m -49.8,-90.3 0,61.5 m 111.6,3.75001 60,34.8 0,69.3 -60,34.5 m 0,-138.6 0,-69.3 -60,-34.5 -60,34.5 m -79.8,-23.1 -40.2,23.1 m 120,0 -40.5,-23.4 M 106.70403,189.97986 140.9,138.99678 m 60,104.1 0,-69.3 m -60,-104.1 0,69.3 m 0,0 60,34.8 m 0,0 60,-34.8 m 127.8,156 50.4,6.9 m -238.2,-58.8 60,34.5 m 0,21.57126 0,-21.57126 m 0,46.35484 0,22.94517 -60,34.8 -60,-34.8 0,-69.3 -32.12051,-49.46125"
 style="fill:none;stroke:#000;stroke-width:3" />
</svg>
