<?xml version="1.0" standalone="no" ?>
<!DOCTYPE svg PUBLIC "-//W3C//DTD SVG 1.1//EN" "http://www.w3.org/Graphics/SVG/1.1/DTD/svg11.dtd">
<svg width="158px" height="134px" viewBox="0 0 158 134" style="background-color: #ffffff00" xmlns="http://www.w3.org/2000/svg" xmlns:xlink="http://www.w3.org/1999/xlink" version="1.1" >
<path stroke="none" fill="#000000" transform="matrix(0.05 0 0 0.05 -273 -129)" d="M 6307.88,3663.27 L 6307.88,3677.16 L 6065.35,3817.18 L 6053.32,3810.24 L 6307.88,3663.27 Z " />
<path stroke="none" fill="#000000" transform="matrix(0.05 0 0 0.05 -273 -129)" d="M 6304.87,3724.65 L 6310.89,3735.07 L 6114,3848.75 L 6107.98,3838.33 L 6304.87,3724.65 Z " />
<path stroke="none" fill="#000000" transform="matrix(0.05 0 0 0.05 -273 -129)" d="M 6065.35,4097.24 L 6059.33,4100.71 L 6053.32,4097.24 L 6053.32,3810.24 L 6065.35,3817.18 L 6065.35,4097.24 Z " />
<path stroke="none" fill="#000000" transform="matrix(0.05 0 0 0.05 -273 -129)" d="M 6307.88,4237.27 L 6307.88,4251.16 L 6059.33,4107.66 L 6059.33,4100.71 L 6065.35,4097.24 L 6307.88,4237.27 Z " />
<path stroke="none" fill="#000000" transform="matrix(0.05 0 0 0.05 -273 -129)" d="M 6310.89,4179.35 L 6304.87,4189.77 L 6107.98,4076.1 L 6114,4065.68 L 6310.89,4179.35 Z " />
<path stroke="none" fill="#000000" transform="matrix(0.05 0 0 0.05 -273 -129)" d="M 6550.41,4097.24 L 6556.43,4100.71 L 6557.12,4107.26 L 6307.88,4251.16 L 6307.88,4237.27 L 6550.41,4097.24 Z " />
<path stroke="none" fill="#000000" transform="matrix(0.05 0 0 0.05 -273 -129)" d="M 6550.41,3817.18 L 6556.43,3813.71 L 6562.45,3818.08 L 6562.45,4096.34 L 6556.43,4100.71 L 6550.41,4097.24 L 6550.41,3817.18 Z " />
<path stroke="none" fill="#000000" transform="matrix(0.05 0 0 0.05 -273 -129)" d="M 6498.75,3843.54 L 6510.79,3843.54 L 6510.79,4070.89 L 6498.75,4070.89 L 6498.75,3843.54 Z " />
<path stroke="none" fill="#000000" transform="matrix(0.05 0 0 0.05 -273 -129)" d="M 6307.88,3677.16 L 6307.88,3663.27 L 6557.12,3807.16 L 6556.43,3813.71 L 6550.41,3817.18 L 6307.88,3677.16 Z " />
<text x="0" y="0" stroke="none" fill="#000000" transform="matrix(0.05 0 0 0.05 65.6225 84.0564)" font-style="normal" font-weight="normal" font-size="200px" font-family="Helvetica" >
N</text>
<text x="0" y="0" stroke="none" fill="#000000" transform="matrix(0.05 0 0 0.05 65.6225 60.8376)" font-style="normal" font-weight="normal" font-size="200px" font-family="Helvetica" >
N</text>
<path stroke="none" fill="#000000" transform="matrix(0.05 0 0 0.05 -273 -129)" d="M 6731.07,4151.13 L 6727.36,4162.57 L 6557.12,4107.26 L 6556.43,4100.71 L 6562.45,4096.34 L 6731.07,4151.13 Z " />
<path stroke="none" fill="#000000" transform="matrix(0.05 0 0 0.05 -273 -129)" d="M 6990.64,3957.21 L 6998.08,3957.21 L 7001.14,3963.23 L 6907.36,4092.31 L 6897.63,4085.23 L 6990.64,3957.21 Z " />
<path stroke="none" fill="#000000" transform="matrix(0.05 0 0 0.05 -273 -129)" d="M 6929.36,3953.68 L 6939.09,3960.75 L 6865.57,4061.94 L 6855.83,4054.87 L 6929.36,3953.68 Z " />
<path stroke="none" fill="#000000" transform="matrix(0.05 0 0 0.05 -273 -129)" d="M 6896.94,3828.23 L 6906.67,3821.16 L 7001.14,3951.2 L 6998.08,3957.21 L 6990.64,3957.21 L 6896.94,3828.23 Z " />
<path stroke="none" fill="#000000" transform="matrix(0.05 0 0 0.05 -273 -129)" d="M 6562.45,3818.08 L 6556.43,3813.71 L 6557.12,3807.16 L 6727.49,3751.81 L 6731.21,3763.25 L 6562.45,3818.08 Z " />
<path stroke="none" fill="#000000" transform="matrix(0.05 0 0 0.05 -273 -129)" d="M 6913.42,3446.91 L 6922.72,3457.23 L 6871.82,3613.88 L 6860.38,3610.16 L 6913.42,3446.91 Z " />
<path stroke="none" fill="#000000" transform="matrix(0.05 0 0 0.05 -273 -129)" d="M 7194.15,3387.24 L 7203.45,3397.56 L 6922.72,3457.23 L 6913.42,3446.91 L 7194.15,3387.24 Z " />
<text x="0" y="0" stroke="none" fill="#000000" transform="matrix(0.05 0 0 0.05 88.5277 30.5588)" font-style="normal" font-weight="normal" font-size="200px" font-family="Helvetica" >
N</text>
<path stroke="none" fill="#000000" transform="matrix(0.05 0 0 0.05 -273 -129)" d="M 7245.39,3229.56 L 7256.83,3233.28 L 7203.45,3397.56 L 7194.15,3387.24 L 7245.39,3229.56 Z " />
<path stroke="none" fill="#000000" transform="matrix(0.05 0 0 0.05 -273 -129)" d="M 7563.57,3054.61 L 7572.86,3064.94 L 7384.94,3104.88 L 7382.44,3093.11 L 7563.57,3054.61 Z " />
<path stroke="none" fill="#000000" transform="matrix(0.05 0 0 0.05 -273 -129)" d="M 7077.84,2918.3 L 7091.26,2914.71 L 7204.24,3027.69 L 7195.73,3036.2 L 7077.84,2918.3 Z " />
<path stroke="none" fill="#000000" transform="matrix(0.05 0 0 0.05 -273 -129)" d="M 7153.02,2637.73 L 7164.64,2640.84 L 7091.26,2914.71 L 7077.84,2918.3 L 7153.02,2637.73 Z " />
<path stroke="none" fill="#000000" transform="matrix(0.05 0 0 0.05 -273 -129)" d="M 7651.18,2784.96 L 7662.63,2788.68 L 7572.86,3064.94 L 7563.57,3054.61 L 7651.18,2784.96 Z " />
<path stroke="none" fill="#000000" transform="matrix(0.05 0 0 0.05 -273 -129)" d="M 7288.55,3951.2 L 7281.6,3963.23 L 7001.14,3963.23 L 6998.08,3957.21 L 7001.14,3951.2 L 7288.55,3951.2 Z " />
<path stroke="none" fill="#000000" transform="matrix(0.05 0 0 0.05 -273 -129)" d="M 7432.05,4199.75 L 7428.58,4205.76 L 7421.63,4205.76 L 7281.6,3963.23 L 7288.55,3951.2 L 7432.05,4199.75 Z " />
<path stroke="none" fill="#000000" transform="matrix(0.05 0 0 0.05 -273 -129)" d="M 7292.02,4454.31 L 7278.13,4454.31 L 7421.63,4205.76 L 7428.58,4205.76 L 7432.05,4211.78 L 7292.02,4454.31 Z " />
<path stroke="none" fill="#000000" transform="matrix(0.05 0 0 0.05 -273 -129)" d="M 7349.94,4457.32 L 7339.52,4451.3 L 7453.19,4254.41 L 7463.61,4260.43 L 7349.94,4457.32 Z " />
<path stroke="none" fill="#000000" transform="matrix(0.05 0 0 0.05 -273 -129)" d="M 7432.05,4696.84 L 7425.1,4708.88 L 7278.13,4454.31 L 7292.02,4454.31 L 7432.05,4696.84 Z " />
<path stroke="none" fill="#000000" transform="matrix(0.05 0 0 0.05 -273 -129)" d="M 7712.1,4696.84 L 7715.58,4702.86 L 7712.1,4708.88 L 7425.1,4708.88 L 7432.05,4696.84 L 7712.1,4696.84 Z " />
<path stroke="none" fill="#000000" transform="matrix(0.05 0 0 0.05 -273 -129)" d="M 7685.75,4645.18 L 7685.75,4657.22 L 7458.4,4657.22 L 7458.4,4645.18 L 7685.75,4645.18 Z " />
<path stroke="none" fill="#000000" transform="matrix(0.05 0 0 0.05 -273 -129)" d="M 7852.13,4454.31 L 7866.02,4454.31 L 7722.52,4702.86 L 7715.58,4702.86 L 7712.1,4696.84 L 7852.13,4454.31 Z " />
<path stroke="none" fill="#000000" transform="matrix(0.05 0 0 0.05 -273 -129)" d="M 7712.1,4211.78 L 7719.05,4199.75 L 7866.02,4454.31 L 7852.13,4454.31 L 7712.1,4211.78 Z " />
<path stroke="none" fill="#000000" transform="matrix(0.05 0 0 0.05 -273 -129)" d="M 7680.54,4260.43 L 7690.96,4254.41 L 7804.64,4451.3 L 7794.22,4457.32 L 7680.54,4260.43 Z " />
<path stroke="none" fill="#000000" transform="matrix(0.05 0 0 0.05 -273 -129)" d="M 7432.05,4211.78 L 7428.58,4205.76 L 7432.05,4199.75 L 7719.05,4199.75 L 7712.1,4211.78 L 7432.05,4211.78 Z " />
<text x="0" y="0" stroke="none" fill="#000000" transform="matrix(0.05 0 0 0.05 116.458 122.157)" font-style="normal" font-weight="normal" font-size="200px" font-family="Helvetica" >
O</text>
<path stroke="none" fill="#000000" transform="matrix(0.05 0 0 0.05 -273 -129)" d="M 7810.34,4854.96 L 7799.92,4860.97 L 7712.1,4708.88 L 7715.58,4702.86 L 7722.52,4702.86 L 7810.34,4854.96 Z " />
<path stroke="none" fill="#000000" transform="matrix(0.05 0 0 0.05 -273 -129)" d="M 8149.55,4945.39 L 8142.6,4957.42 L 7960.14,4957.42 L 7960.14,4945.39 L 8149.55,4945.39 Z " />
<path stroke="none" fill="#000000" transform="matrix(0.05 0 0 0.05 -273 -129)" d="M 8293.05,5193.94 L 8286.1,5205.97 L 8142.6,4957.42 L 8149.55,4945.39 L 8293.05,5193.94 Z " />
<text x="0" y="0" stroke="none" fill="#000000" transform="matrix(0.05 0 0 0.05 1.21466 86.797)" font-style="normal" font-weight="normal" font-size="200px" font-family="Helvetica" >
O</text>
<text x="0" y="0" stroke="none" fill="#000000" transform="matrix(0.05 0 0 0.05 8.99298 89.0968)" font-style="normal" font-weight="normal" font-size="150px" font-family="Helvetica" >
2</text>
<text x="0" y="0" stroke="none" fill="#000000" transform="matrix(0.05 0 0 0.05 13.1641 86.797)" font-style="normal" font-weight="normal" font-size="200px" font-family="Helvetica" >
N</text>
<path stroke="none" fill="#000000" transform="matrix(0.05 0 0 0.05 -273 -129)" d="M 5914.59,4191.22 L 5908.58,4180.8 L 6053.32,4097.24 L 6059.33,4100.71 L 6059.33,4107.66 L 5914.59,4191.22 Z " />
<path stroke="none" fill="#000000" transform="matrix(0.05 0 0 0.05 -273 -129)" d="M 8577.55,5193.94 L 8577.55,5205.97 L 8286.1,5205.97 L 8293.05,5193.94 L 8577.55,5193.94 Z " />
</svg>
